0
SECTION
2
HEADER
9
$INSUNITS
70
4
9
$ACADVER
1
AC1014
9
$HANDSEED
5
FFFF
0
ENDSEC
0
SECTION
2
TABLES
0
TABLE
2
VPORT
5
8
100
AcDbSymbolTable
0
ENDTAB
0
TABLE
2
LTYPE
5
5
100
AcDbSymbolTable
0
LTYPE
5
14
100
AcDbSymbolTableRecord
100
AcDbLinetypeTableRecord
2
BYBLOCK
70
0
0
LTYPE
5
15
100
AcDbSymbolTableRecord
100
AcDbLinetypeTableRecord
2
BYLAYER
70
0
0
ENDTAB
0
TABLE
2
LAYER
5
2
100
AcDbSymbolTable
70
2
0
LAYER
5
50
100
AcDbSymbolTableRecord
100
AcDbLayerTableRecord
2
0
70
0
6
CONTINUOUS
0
ENDTAB
0
TABLE
2
STYLE
5
3
100
AcDbSymbolTable
70
1
0
STYLE
5
11
100
AcDbSymbolTableRecord
100
AcDbTextStyleTableRecord
2
STANDARD
70
0
0
ENDTAB
0
TABLE
2
VIEW
5
6
100
AcDbSymbolTable
70
0
0
ENDTAB
0
TABLE
2
UCS
5
7
100
AcDbSymbolTable
70
0
0
ENDTAB
0
TABLE
2
APPID
5
9
100
AcDbSymbolTable
70
2
0
APPID
5
12
100
AcDbSymbolTableRecord
100
AcDbRegAppTableRecord
2
ACAD
70
0
0
ENDTAB
0
TABLE
2
DIMSTYLE
5
A
100
AcDbSymbolTable
70
1
0
ENDTAB
0
TABLE
2
BLOCK_RECORD
5
1
100
AcDbSymbolTable
70
1
0
BLOCK_RECORD
5
1F
100
AcDbSymbolTableRecord
100
AcDbBlockTableRecord
2
*MODEL_SPACE
0
BLOCK_RECORD
5
1B
100
AcDbSymbolTableRecord
100
AcDbBlockTableRecord
2
*PAPER_SPACE
0
ENDTAB
0
ENDSEC
0
SECTION
2
BLOCKS
0
BLOCK
5
20
100
AcDbEntity
100
AcDbBlockBegin
2
*MODEL_SPACE
0
ENDBLK
5
21
100
AcDbEntity
100
AcDbBlockEnd
0
BLOCK
5
1C
100
AcDbEntity
100
AcDbBlockBegin
2
*PAPER_SPACE
0
ENDBLK
5
1D
100
AcDbEntity
100
AcDbBlockEnd
0
ENDSEC
0
SECTION
2
ENTITIES
0
LWPOLYLINE
5
100
100
AcDbEntity
8
0
100
AcDbPolyline
90
8
70
1
43
0.0
10
87.634338378906619
20
298.24999237060587
42
0.41421356237309503
10
84.634338378906591
20
295.24999237060592
10
84.634338378905738
20
235.74999237060592
42
0.41421356237309503
10
87.634338378905682
20
232.74999237060587
10
147.13433837890568
20
232.74999237060507
42
0.41421356237309503
10
150.13433837890574
20
235.74999237060499
10
150.13433837890659
20
295.24999237060501
42
0.41421356237309503
10
147.13433837890665
20
298.24999237060507
0
LWPOLYLINE
5
101
100
AcDbEntity
8
0
100
AcDbPolyline
90
4
70
1
43
0.0
10
114.13433837890578
20
239.29999237060548
10
120.6343383789058
20
239.29999237060542
42
-0.99999999999999989
10
120.63433837890572
20
236.29999237060545
10
114.13433837890574
20
236.29999237060554
42
-0.99999999999999989
0
LWPOLYLINE
5
102
100
AcDbEntity
8
0
100
AcDbPolyline
90
4
70
1
43
0.0
10
140.78433837890574
20
236.29999237060514
10
134.28433837890574
20
236.29999237060525
42
-0.99999999999999989
10
134.28433837890577
20
239.2999923706052
10
140.78433837890577
20
239.29999237060517
42
-0.99999999999999989
0
LWPOLYLINE
5
103
100
AcDbEntity
8
0
100
AcDbPolyline
90
4
70
1
43
0.0
10
93.984338378906585
20
294.6999923706058
10
100.48433837890657
20
294.69999237060568
42
-0.99999999999999989
10
100.48433837890654
20
291.69999237060574
10
93.984338378906557
20
291.69999237060574
42
-0.99999999999999989
0
LWPOLYLINE
5
104
100
AcDbEntity
8
0
100
AcDbPolyline
90
4
70
1
43
0.0
10
140.78433837890654
20
291.69999237060512
10
134.28433837890654
20
291.69999237060517
42
-0.99999999999999989
10
134.28433837890657
20
294.69999237060523
10
140.7843383789066
20
294.69999237060517
42
-0.99999999999999989
0
LWPOLYLINE
5
105
100
AcDbEntity
8
0
100
AcDbPolyline
90
4
70
1
43
0.0
10
114.13433837890659
20
294.69999237060551
10
120.63433837890658
20
294.6999923706054
42
-0.99999999999999989
10
120.63433837890655
20
291.69999237060546
10
114.13433837890656
20
291.69999237060546
42
-0.99999999999999989
0
LWPOLYLINE
5
106
100
AcDbEntity
8
0
100
AcDbPolyline
90
4
70
1
43
0.0
10
107.0643383789065
20
287.99999237060558
10
127.70433837890648
20
287.99999237060536
42
-0.99999999999999989
10
127.70433837890641
20
282.99999237060536
10
107.0643383789064
20
282.99999237060558
42
-0.99999999999999989
0
LWPOLYLINE
5
107
100
AcDbEntity
8
0
100
AcDbPolyline
90
4
70
1
43
0.0
10
93.98433837890579
20
239.29999237060582
10
100.48433837890578
20
239.29999237060574
42
-0.99999999999999989
10
100.48433837890573
20
236.29999237060571
10
93.984338378905719
20
236.29999237060576
42
-0.99999999999999989
0
LWPOLYLINE
5
108
100
AcDbEntity
8
0
100
AcDbPolyline
90
4
70
1
43
0.0
10
107.06433837890592
20
247.99999237060561
10
127.70433837890593
20
247.99999237060533
42
-0.99999999999999989
10
127.70433837890582
20
242.99999237060533
10
107.06433837890584
20
242.99999237060561
42
-0.99999999999999989
0
CIRCLE
5
109
100
AcDbEntity
8
0
100
AcDbCircle
10
117.38433837890616
20
265.49999237060547
30
3.7303493627405734e-13
40
2.5499999999999998
210
2.5637979419682968e-30
220
5.6699377562756598e-31
230
1
0
CIRCLE
5
110
100
AcDbEntity
8
0
100
AcDbCircle
10
127.38433837890616
20
265.49999237060536
30
3.7303493627405724e-13
40
2.5499999999999998
210
2.5637979419682968e-30
220
5.6699377562756598e-31
230
1
0
CIRCLE
5
111
100
AcDbEntity
8
0
100
AcDbCircle
10
97.534338378905858
20
245.49999237060575
30
3.7303493627405704e-13
40
3.6000000000000005
210
2.5637979419682968e-30
220
5.6699377562756598e-31
230
1
0
CIRCLE
5
112
100
AcDbEntity
8
0
100
AcDbCircle
10
97.534338378906455
20
285.49999237060575
30
3.7303493627405785e-13
40
3.6000000000000005
210
2.5637979419682968e-30
220
5.6699377562756598e-31
230
1
0
CIRCLE
5
113
100
AcDbEntity
8
0
100
AcDbCircle
10
137.23433837890587
20
245.49999237060518
30
3.7303493627405684e-13
40
2.5499999999999998
210
2.5637979419682968e-30
220
5.6699377562756598e-31
230
1
0
CIRCLE
5
114
100
AcDbEntity
8
0
100
AcDbCircle
10
137.23433837890644
20
285.49999237060518
30
3.7303493627405765e-13
40
2.5499999999999998
210
2.5637979419682968e-30
220
5.6699377562756598e-31
230
1
0
CIRCLE
5
115
100
AcDbEntity
8
0
100
AcDbCircle
10
137.23433837890602
20
255.49999237060518
30
3.7303493627405704e-13
40
2.5499999999999998
210
2.5637979419682968e-30
220
5.6699377562756598e-31
230
1
0
CIRCLE
5
116
100
AcDbEntity
8
0
100
AcDbCircle
10
97.534338378906313
20
275.49999237060575
30
3.7303493627405765e-13
40
2.5499999999999998
210
2.5637979419682968e-30
220
5.6699377562756598e-31
230
1
0
CIRCLE
5
117
100
AcDbEntity
8
0
100
AcDbCircle
10
137.23433837890633
20
275.49999237060518
30
3.7303493627405744e-13
40
2.5499999999999998
210
2.5637979419682968e-30
220
5.6699377562756598e-31
230
1
0
CIRCLE
5
118
100
AcDbEntity
8
0
100
AcDbCircle
10
117.38433837890632
20
275.49999237060547
30
3.7303493627405755e-13
40
2.5499999999999998
210
2.5637979419682968e-30
220
5.6699377562756598e-31
230
1
0
CIRCLE
5
119
100
AcDbEntity
8
0
100
AcDbCircle
10
137.23433837890616
20
265.49999237060518
30
3.7303493627405719e-13
40
2.5499999999999998
210
2.5637979419682968e-30
220
5.6699377562756598e-31
230
1
0
CIRCLE
5
120
100
AcDbEntity
8
0
100
AcDbCircle
10
97.534338378906
20
255.49999237060575
30
3.7303493627405719e-13
40
2.5499999999999998
210
2.5637979419682968e-30
220
5.6699377562756598e-31
230
1
0
CIRCLE
5
121
100
AcDbEntity
8
0
100
AcDbCircle
10
97.534338378906142
20
265.49999237060575
30
3.7303493627405744e-13
40
3.6000000000000005
210
2.5637979419682968e-30
220
5.6699377562756598e-31
230
1
0
CIRCLE
5
122
100
AcDbEntity
8
0
100
AcDbCircle
10
107.38433837890618
20
265.49999237060558
30
3.7303493627405739e-13
40
2.5499999999999998
210
2.5637979419682968e-30
220
5.6699377562756598e-31
230
1
0
CIRCLE
5
123
100
AcDbEntity
8
0
100
AcDbCircle
10
117.38433837890602
20
255.49999237060547
30
3.7303493627405714e-13
40
2.5499999999999998
210
2.5637979419682968e-30
220
5.6699377562756598e-31
230
1
0
ENDSEC
0
SECTION
2
OBJECTS
0
DICTIONARY
5
C
100
AcDbDictionary
3
ACAD_GROUP
350
D
3
ACAD_MLINESTYLE
350
17
0
DICTIONARY
5
D
100
AcDbDictionary
0
DICTIONARY
5
1A
330
C
100
AcDbDictionary
0
DICTIONARY
5
17
100
AcDbDictionary
0
ENDSEC
0
EOF
