<svg width="15.25in" height="20.125in" viewBox="0 0 15.25 20.125" xmlns="http://www.w3.org/2000/svg" version="1.1" preserveAspectRatio="xMidYMid meet"><g id="svgGroup" stroke-linecap="round" fill-rule="evenodd" font-size="9pt" stroke="#000" stroke-width="0.25mm" fill="none" style="stroke:#000;stroke-width:0.25mm;fill:none"><path d="M 0 10.125 L 0 11.305 L 0.236 11.305 L 0.236 12.396 L 0 12.396 L 0 13.488 L 0.236 13.488 L 0.236 14.579 L 0 14.579 L 0 15.671 L 0.236 15.671 L 0.236 16.762 L 0 16.762 L 0 17.854 L 0.236 17.854 L 0.236 18.945 L 0 18.945 L 0 20.125 L 0.863 20.125 L 0.863 19.889 L 1.954 19.889 L 1.954 20.125 L 3.046 20.125 L 3.046 19.889 L 4.137 19.889 L 4.137 20.125 L 5 20.125 L 5 18.945 L 4.764 18.945 L 4.764 17.854 L 5 17.854 L 5 16.762 L 4.764 16.762 L 4.764 15.671 L 5 15.671 L 5 14.579 L 4.764 14.579 L 4.764 13.488 L 5 13.488 L 5 12.396 L 4.764 12.396 L 4.764 11.305 L 5 11.305 L 5 10.125 L 4.137 10.125 L 4.137 10.361 L 3.046 10.361 L 3.046 10.125 L 1.954 10.125 L 1.954 10.361 L 0.863 10.361 L 0.863 10.125 L 0 10.125 Z" id="front_outsideCutPath" stroke="#FF0000" stroke-width="0.1" style="stroke:#FF0000;stroke-width:0.1" vector-effect="non-scaling-stroke"/><path d="M 3.229 15.503 L 3.148 15.503 L 3.148 15.156 A 0.229 0.229 0 0 0 3.145 15.121 Q 3.139 15.081 3.118 15.059 A 0.091 0.091 0 0 0 3.08 15.035 Q 3.057 15.027 3.025 15.027 Q 2.941 15.027 2.902 15.072 A 0.133 0.133 0 0 0 2.879 15.112 Q 2.863 15.155 2.863 15.222 L 2.863 15.503 L 2.781 15.503 L 2.781 14.968 L 2.847 14.968 L 2.861 15.041 L 2.865 15.041 A 0.164 0.164 0 0 1 2.929 14.982 A 0.198 0.198 0 0 1 2.934 14.979 A 0.219 0.219 0 0 1 3.012 14.959 A 0.265 0.265 0 0 1 3.034 14.958 Q 3.099 14.958 3.142 14.978 A 0.146 0.146 0 0 1 3.18 15.004 Q 3.217 15.04 3.226 15.108 A 0.354 0.354 0 0 1 3.229 15.154 L 3.229 15.503 Z M 1.672 14.968 L 1.672 15.031 L 1.535 15.031 L 1.535 15.503 L 1.454 15.503 L 1.454 15.031 L 1.359 15.031 L 1.359 14.994 L 1.454 14.965 L 1.454 14.935 A 0.329 0.329 0 0 1 1.462 14.86 Q 1.486 14.759 1.583 14.741 A 0.246 0.246 0 0 1 1.627 14.738 A 0.261 0.261 0 0 1 1.664 14.74 Q 1.682 14.743 1.702 14.748 A 0.525 0.525 0 0 1 1.726 14.755 L 1.705 14.82 A 0.394 0.394 0 0 0 1.675 14.811 Q 1.659 14.807 1.646 14.806 A 0.174 0.174 0 0 0 1.625 14.804 Q 1.579 14.804 1.557 14.835 Q 1.535 14.865 1.535 14.933 L 1.535 14.968 L 1.672 14.968 Z M 3.641 15.436 L 3.641 15.498 A 0.08 0.08 0 0 1 3.632 15.502 Q 3.622 15.505 3.607 15.507 A 0.304 0.304 0 0 1 3.603 15.508 A 0.351 0.351 0 0 1 3.58 15.511 Q 3.569 15.512 3.559 15.512 A 0.207 0.207 0 0 1 3.556 15.512 A 0.212 0.212 0 0 1 3.494 15.504 Q 3.401 15.475 3.401 15.349 L 3.401 15.031 L 3.324 15.031 L 3.324 14.991 L 3.401 14.958 L 3.435 14.843 L 3.482 14.843 L 3.482 14.968 L 3.637 14.968 L 3.637 15.031 L 3.482 15.031 L 3.482 15.345 Q 3.482 15.379 3.494 15.402 A 0.079 0.079 0 0 0 3.505 15.42 A 0.075 0.075 0 0 0 3.551 15.444 A 0.108 0.108 0 0 0 3.568 15.446 A 0.266 0.266 0 0 0 3.607 15.443 A 0.245 0.245 0 0 0 3.61 15.442 A 0.438 0.438 0 0 0 3.621 15.44 Q 3.633 15.438 3.641 15.436 Z M 2.077 14.964 L 2.066 15.039 A 0.357 0.357 0 0 0 2.04 15.034 Q 2.028 15.032 2.016 15.032 A 0.19 0.19 0 0 0 2.008 15.031 A 0.14 0.14 0 0 0 1.904 15.076 A 0.192 0.192 0 0 0 1.896 15.084 A 0.185 0.185 0 0 0 1.852 15.188 A 0.246 0.246 0 0 0 1.85 15.216 L 1.85 15.503 L 1.769 15.503 L 1.769 14.968 L 1.836 14.968 L 1.845 15.067 L 1.849 15.067 A 0.274 0.274 0 0 1 1.88 15.023 A 0.209 0.209 0 0 1 1.921 14.986 A 0.162 0.162 0 0 1 2.013 14.958 A 0.372 0.372 0 0 1 2.047 14.959 A 0.272 0.272 0 0 1 2.077 14.964 Z M 2.632 15.316 A 0.419 0.419 0 0 0 2.639 15.235 A 0.475 0.475 0 0 0 2.639 15.222 Q 2.638 15.177 2.628 15.139 A 0.252 0.252 0 0 0 2.573 15.032 A 0.212 0.212 0 0 0 2.475 14.969 A 0.272 0.272 0 0 0 2.395 14.958 A 0.315 0.315 0 0 0 2.338 14.963 A 0.214 0.214 0 0 0 2.213 15.031 A 0.224 0.224 0 0 0 2.186 15.069 Q 2.148 15.135 2.148 15.235 A 0.405 0.405 0 0 0 2.153 15.3 A 0.3 0.3 0 0 0 2.178 15.382 A 0.266 0.266 0 0 0 2.184 15.394 A 0.219 0.219 0 0 0 2.264 15.479 A 0.226 0.226 0 0 0 2.316 15.502 A 0.26 0.26 0 0 0 2.391 15.512 A 0.315 0.315 0 0 0 2.446 15.508 A 0.216 0.216 0 0 0 2.573 15.439 Q 2.617 15.39 2.632 15.316 Z M 2.232 15.235 A 0.41 0.41 0 0 0 2.236 15.293 Q 2.244 15.354 2.273 15.391 Q 2.314 15.445 2.393 15.445 A 0.188 0.188 0 0 0 2.443 15.438 A 0.131 0.131 0 0 0 2.514 15.391 A 0.174 0.174 0 0 0 2.541 15.338 Q 2.555 15.295 2.555 15.235 A 0.404 0.404 0 0 0 2.552 15.177 Q 2.543 15.116 2.514 15.08 A 0.133 0.133 0 0 0 2.431 15.03 A 0.204 0.204 0 0 0 2.392 15.027 A 0.193 0.193 0 0 0 2.344 15.032 A 0.129 0.129 0 0 0 2.272 15.079 A 0.168 0.168 0 0 0 2.246 15.129 Q 2.238 15.152 2.235 15.181 A 0.428 0.428 0 0 0 2.232 15.235 Z" id="front_labelLayer" stroke="#777777" fill="#777777" style="stroke:#777777;fill:#777777" vector-effect="non-scaling-stroke"/><path d="M 5.361 10.125 L 5.361 11.305 L 5.125 11.305 L 5.125 12.396 L 5.361 12.396 L 5.361 13.488 L 5.125 13.488 L 5.125 14.579 L 5.361 14.579 L 5.361 15.671 L 5.125 15.671 L 5.125 16.762 L 5.361 16.762 L 5.361 17.854 L 5.125 17.854 L 5.125 18.945 L 5.361 18.945 L 5.361 20.125 L 5.988 20.125 L 5.988 19.889 L 7.079 19.889 L 7.079 20.125 L 8.171 20.125 L 8.171 19.889 L 9.262 19.889 L 9.262 20.125 L 9.889 20.125 L 9.889 18.945 L 10.125 18.945 L 10.125 17.854 L 9.889 17.854 L 9.889 16.762 L 10.125 16.762 L 10.125 15.671 L 9.889 15.671 L 9.889 14.579 L 10.125 14.579 L 10.125 13.488 L 9.889 13.488 L 9.889 12.396 L 10.125 12.396 L 10.125 11.305 L 9.889 11.305 L 9.889 10.125 L 9.262 10.125 L 9.262 10.361 L 8.171 10.361 L 8.171 10.125 L 7.079 10.125 L 7.079 10.361 L 5.988 10.361 L 5.988 10.125 L 5.361 10.125 Z" id="left_outsideCutPath" stroke="#FF0000" stroke-width="0.1" style="stroke:#FF0000;stroke-width:0.1" vector-effect="non-scaling-stroke"/><path d="M 7.981 14.968 L 7.981 15.031 L 7.844 15.031 L 7.844 15.503 L 7.763 15.503 L 7.763 15.031 L 7.668 15.031 L 7.668 14.994 L 7.763 14.965 L 7.763 14.935 A 0.329 0.329 0 0 1 7.771 14.86 Q 7.795 14.759 7.892 14.741 A 0.246 0.246 0 0 1 7.936 14.738 A 0.261 0.261 0 0 1 7.973 14.74 Q 7.991 14.743 8.011 14.748 A 0.525 0.525 0 0 1 8.035 14.755 L 8.014 14.82 A 0.394 0.394 0 0 0 7.984 14.811 Q 7.968 14.807 7.955 14.806 A 0.174 0.174 0 0 0 7.934 14.804 Q 7.888 14.804 7.866 14.835 Q 7.844 14.865 7.844 14.933 L 7.844 14.968 L 7.981 14.968 Z M 7.601 15.198 L 7.601 15.25 L 7.233 15.25 Q 7.234 15.314 7.256 15.357 A 0.152 0.152 0 0 0 7.28 15.393 A 0.147 0.147 0 0 0 7.358 15.436 A 0.223 0.223 0 0 0 7.407 15.442 Q 7.494 15.442 7.578 15.406 L 7.578 15.478 A 0.487 0.487 0 0 1 7.534 15.495 A 0.372 0.372 0 0 1 7.497 15.504 Q 7.459 15.512 7.405 15.512 A 0.315 0.315 0 0 1 7.326 15.503 A 0.223 0.223 0 0 1 7.217 15.44 Q 7.149 15.368 7.149 15.239 A 0.426 0.426 0 0 1 7.157 15.155 Q 7.167 15.104 7.191 15.064 A 0.24 0.24 0 0 1 7.212 15.034 A 0.208 0.208 0 0 1 7.364 14.958 A 0.286 0.286 0 0 1 7.384 14.958 A 0.247 0.247 0 0 1 7.453 14.967 A 0.188 0.188 0 0 1 7.543 15.024 A 0.227 0.227 0 0 1 7.594 15.127 A 0.33 0.33 0 0 1 7.601 15.198 Z M 8.324 15.436 L 8.324 15.498 A 0.08 0.08 0 0 1 8.315 15.502 Q 8.305 15.505 8.29 15.507 A 0.304 0.304 0 0 1 8.286 15.508 A 0.351 0.351 0 0 1 8.263 15.511 Q 8.252 15.512 8.242 15.512 A 0.207 0.207 0 0 1 8.24 15.512 A 0.212 0.212 0 0 1 8.177 15.504 Q 8.084 15.475 8.084 15.349 L 8.084 15.031 L 8.008 15.031 L 8.008 14.991 L 8.084 14.958 L 8.118 14.843 L 8.165 14.843 L 8.165 14.968 L 8.321 14.968 L 8.321 15.031 L 8.165 15.031 L 8.165 15.345 Q 8.165 15.379 8.177 15.402 A 0.079 0.079 0 0 0 8.188 15.42 A 0.075 0.075 0 0 0 8.235 15.444 A 0.108 0.108 0 0 0 8.251 15.446 A 0.266 0.266 0 0 0 8.29 15.443 A 0.245 0.245 0 0 0 8.293 15.442 A 0.438 0.438 0 0 0 8.304 15.44 Q 8.316 15.438 8.324 15.436 Z M 7.007 14.743 L 7.007 15.503 L 6.926 15.503 L 6.926 14.743 L 7.007 14.743 Z M 7.235 15.184 L 7.514 15.184 A 0.276 0.276 0 0 0 7.511 15.139 Q 7.507 15.116 7.499 15.097 A 0.125 0.125 0 0 0 7.48 15.066 A 0.111 0.111 0 0 0 7.413 15.028 A 0.167 0.167 0 0 0 7.383 15.026 A 0.16 0.16 0 0 0 7.336 15.032 A 0.123 0.123 0 0 0 7.28 15.068 A 0.16 0.16 0 0 0 7.248 15.121 Q 7.24 15.143 7.236 15.17 A 0.306 0.306 0 0 0 7.235 15.184 Z" id="left_labelLayer" stroke="#777777" fill="#777777" style="stroke:#777777;fill:#777777" vector-effect="non-scaling-stroke"/><path d="M 10.486 15.361 L 10.486 15.988 L 10.25 15.988 L 10.25 17.079 L 10.486 17.079 L 10.486 18.171 L 10.25 18.171 L 10.25 19.262 L 10.486 19.262 L 10.486 19.889 L 11.113 19.889 L 11.113 20.125 L 12.204 20.125 L 12.204 19.889 L 13.296 19.889 L 13.296 20.125 L 14.387 20.125 L 14.387 19.889 L 15.014 19.889 L 15.014 19.262 L 15.25 19.262 L 15.25 18.171 L 15.014 18.171 L 15.014 17.079 L 15.25 17.079 L 15.25 15.988 L 15.014 15.988 L 15.014 15.361 L 14.387 15.361 L 14.387 15.125 L 13.296 15.125 L 13.296 15.361 L 12.204 15.361 L 12.204 15.125 L 11.113 15.125 L 11.113 15.361 L 10.486 15.361 Z" id="top_outsideCutPath" stroke="#FF0000" stroke-width="0.1" style="stroke:#FF0000;stroke-width:0.1" vector-effect="non-scaling-stroke"/><path d="M 13.109 17.766 L 13.104 17.766 Q 13.109 17.813 13.109 17.854 L 13.109 18.075 L 13.028 18.075 L 13.028 17.299 L 13.094 17.299 L 13.105 17.373 L 13.109 17.373 A 0.218 0.218 0 0 1 13.141 17.337 A 0.169 0.169 0 0 1 13.182 17.309 A 0.203 0.203 0 0 1 13.24 17.292 A 0.263 0.263 0 0 1 13.277 17.29 A 0.248 0.248 0 0 1 13.348 17.299 A 0.184 0.184 0 0 1 13.442 17.362 A 0.243 0.243 0 0 1 13.483 17.443 Q 13.5 17.497 13.5 17.566 A 0.475 0.475 0 0 1 13.493 17.646 Q 13.486 17.689 13.47 17.723 A 0.228 0.228 0 0 1 13.441 17.771 A 0.192 0.192 0 0 1 13.304 17.843 A 0.275 0.275 0 0 1 13.277 17.844 A 0.246 0.246 0 0 1 13.216 17.837 A 0.214 0.214 0 0 1 13.182 17.825 A 0.18 0.18 0 0 1 13.109 17.766 Z M 12.317 17.768 L 12.317 17.83 A 0.08 0.08 0 0 1 12.308 17.833 Q 12.298 17.837 12.283 17.839 A 0.304 0.304 0 0 1 12.279 17.84 A 0.351 0.351 0 0 1 12.256 17.843 Q 12.245 17.844 12.235 17.844 A 0.207 0.207 0 0 1 12.232 17.844 A 0.212 0.212 0 0 1 12.17 17.836 Q 12.077 17.807 12.077 17.681 L 12.077 17.362 L 12 17.362 L 12 17.323 L 12.077 17.29 L 12.111 17.175 L 12.158 17.175 L 12.158 17.299 L 12.313 17.299 L 12.313 17.362 L 12.158 17.362 L 12.158 17.677 Q 12.158 17.711 12.17 17.734 A 0.079 0.079 0 0 0 12.181 17.751 A 0.075 0.075 0 0 0 12.227 17.776 A 0.108 0.108 0 0 0 12.244 17.777 A 0.266 0.266 0 0 0 12.283 17.775 A 0.245 0.245 0 0 0 12.286 17.774 A 0.438 0.438 0 0 0 12.297 17.772 Q 12.309 17.77 12.317 17.768 Z M 12.879 17.648 A 0.419 0.419 0 0 0 12.886 17.566 A 0.475 0.475 0 0 0 12.886 17.554 Q 12.885 17.509 12.875 17.471 A 0.252 0.252 0 0 0 12.82 17.364 A 0.212 0.212 0 0 0 12.722 17.301 A 0.272 0.272 0 0 0 12.642 17.29 A 0.315 0.315 0 0 0 12.585 17.294 A 0.214 0.214 0 0 0 12.46 17.363 A 0.224 0.224 0 0 0 12.432 17.401 Q 12.395 17.467 12.395 17.566 A 0.405 0.405 0 0 0 12.4 17.632 A 0.3 0.3 0 0 0 12.425 17.714 A 0.266 0.266 0 0 0 12.431 17.725 A 0.219 0.219 0 0 0 12.511 17.811 A 0.226 0.226 0 0 0 12.563 17.834 A 0.26 0.26 0 0 0 12.638 17.844 A 0.315 0.315 0 0 0 12.693 17.84 A 0.216 0.216 0 0 0 12.82 17.771 Q 12.864 17.722 12.879 17.648 Z M 12.479 17.566 A 0.41 0.41 0 0 0 12.482 17.625 Q 12.491 17.686 12.52 17.723 Q 12.561 17.776 12.64 17.776 A 0.188 0.188 0 0 0 12.69 17.77 A 0.131 0.131 0 0 0 12.761 17.723 A 0.174 0.174 0 0 0 12.788 17.67 Q 12.802 17.627 12.802 17.566 A 0.404 0.404 0 0 0 12.798 17.509 Q 12.79 17.448 12.761 17.411 A 0.133 0.133 0 0 0 12.678 17.362 A 0.204 0.204 0 0 0 12.639 17.358 A 0.193 0.193 0 0 0 12.591 17.364 A 0.129 0.129 0 0 0 12.519 17.411 A 0.168 0.168 0 0 0 12.493 17.461 Q 12.485 17.484 12.482 17.512 A 0.428 0.428 0 0 0 12.479 17.566 Z M 13.109 17.548 L 13.109 17.566 A 0.536 0.536 0 0 0 13.112 17.622 Q 13.119 17.692 13.147 17.728 A 0.118 0.118 0 0 0 13.207 17.768 Q 13.233 17.776 13.268 17.776 A 0.137 0.137 0 0 0 13.321 17.766 Q 13.351 17.754 13.373 17.724 A 0.162 0.162 0 0 0 13.376 17.72 Q 13.407 17.676 13.414 17.605 A 0.432 0.432 0 0 0 13.416 17.565 Q 13.416 17.465 13.376 17.412 A 0.126 0.126 0 0 0 13.285 17.359 A 0.174 0.174 0 0 0 13.266 17.358 A 0.234 0.234 0 0 0 13.222 17.362 Q 13.198 17.367 13.179 17.377 A 0.107 0.107 0 0 0 13.147 17.404 Q 13.11 17.449 13.109 17.548 Z" id="top_labelLayer" stroke="#777777" fill="#777777" style="stroke:#777777;fill:#777777" vector-effect="non-scaling-stroke"/><path d="M 0 0 L 0 1.18 L 0.236 1.18 L 0.236 2.271 L 0 2.271 L 0 3.363 L 0.236 3.363 L 0.236 4.454 L 0 4.454 L 0 5.546 L 0.236 5.546 L 0.236 6.637 L 0 6.637 L 0 7.729 L 0.236 7.729 L 0.236 8.82 L 0 8.82 L 0 10 L 0.863 10 L 0.863 9.764 L 1.954 9.764 L 1.954 10 L 3.046 10 L 3.046 9.764 L 4.137 9.764 L 4.137 10 L 5 10 L 5 8.82 L 4.764 8.82 L 4.764 7.729 L 5 7.729 L 5 6.637 L 4.764 6.637 L 4.764 5.546 L 5 5.546 L 5 4.454 L 4.764 4.454 L 4.764 3.363 L 5 3.363 L 5 2.271 L 4.764 2.271 L 4.764 1.18 L 5 1.18 L 5 0 L 4.137 0 L 4.137 0.236 L 3.046 0.236 L 3.046 0 L 1.954 0 L 1.954 0.236 L 0.863 0.236 L 0.863 0 L 0 0 Z" id="back_outsideCutPath" stroke="#FF0000" stroke-width="0.1" style="stroke:#FF0000;stroke-width:0.1" vector-effect="non-scaling-stroke"/><path d="M 3.185 5.101 L 3.188 5.101 A 0.48 0.48 0 0 1 3.2 5.085 Q 3.214 5.067 3.234 5.045 A 1.742 1.742 0 0 1 3.252 5.023 L 3.425 4.84 L 3.521 4.84 L 3.305 5.068 L 3.537 5.375 L 3.438 5.375 L 3.25 5.122 L 3.188 5.175 L 3.188 5.375 L 3.108 5.375 L 3.108 4.615 L 3.188 4.615 L 3.188 5.018 Q 3.188 5.044 3.185 5.099 A 3.859 3.859 0 0 1 3.185 5.101 Z M 1.544 5.306 L 1.539 5.306 L 1.521 5.375 L 1.463 5.375 L 1.463 4.615 L 1.544 4.615 L 1.544 4.8 A 1.69 1.69 0 0 1 1.544 4.857 Q 1.543 4.884 1.541 4.908 A 1.023 1.023 0 0 1 1.541 4.911 L 1.544 4.911 Q 1.601 4.831 1.712 4.831 A 0.248 0.248 0 0 1 1.782 4.84 A 0.185 0.185 0 0 1 1.876 4.903 Q 1.935 4.975 1.935 5.107 A 0.475 0.475 0 0 1 1.928 5.187 Q 1.921 5.23 1.905 5.264 A 0.228 0.228 0 0 1 1.876 5.312 A 0.192 0.192 0 0 1 1.739 5.383 A 0.275 0.275 0 0 1 1.712 5.385 A 0.246 0.246 0 0 1 1.651 5.377 A 0.214 0.214 0 0 1 1.617 5.365 A 0.18 0.18 0 0 1 1.544 5.306 Z M 2.465 5.375 L 2.405 5.375 L 2.389 5.299 L 2.385 5.299 A 0.336 0.336 0 0 1 2.358 5.329 Q 2.343 5.344 2.329 5.354 A 0.149 0.149 0 0 1 2.305 5.367 Q 2.273 5.382 2.226 5.384 A 0.365 0.365 0 0 1 2.206 5.385 A 0.249 0.249 0 0 1 2.155 5.38 Q 2.111 5.371 2.081 5.344 A 0.133 0.133 0 0 1 2.041 5.273 A 0.204 0.204 0 0 1 2.036 5.227 A 0.14 0.14 0 0 1 2.116 5.095 Q 2.18 5.061 2.295 5.057 L 2.386 5.054 L 2.386 5.021 A 0.233 0.233 0 0 0 2.384 4.987 Q 2.381 4.97 2.376 4.956 A 0.09 0.09 0 0 0 2.359 4.928 Q 2.332 4.898 2.272 4.898 A 0.264 0.264 0 0 0 2.212 4.906 Q 2.184 4.912 2.154 4.924 A 0.543 0.543 0 0 0 2.121 4.939 L 2.096 4.877 A 0.374 0.374 0 0 1 2.168 4.847 A 0.426 0.426 0 0 1 2.183 4.843 Q 2.23 4.831 2.277 4.831 A 0.342 0.342 0 0 1 2.329 4.835 Q 2.356 4.839 2.378 4.848 A 0.138 0.138 0 0 1 2.419 4.874 A 0.128 0.128 0 0 1 2.452 4.925 Q 2.46 4.946 2.463 4.972 A 0.319 0.319 0 0 1 2.465 5.01 L 2.465 5.375 Z M 2.989 4.858 L 2.964 4.927 A 0.361 0.361 0 0 0 2.925 4.914 A 0.43 0.43 0 0 0 2.906 4.909 A 0.335 0.335 0 0 0 2.88 4.904 Q 2.868 4.902 2.857 4.902 A 0.18 0.18 0 0 0 2.85 4.902 A 0.18 0.18 0 0 0 2.777 4.916 Q 2.7 4.949 2.689 5.066 A 0.448 0.448 0 0 0 2.687 5.11 Q 2.687 5.208 2.726 5.261 A 0.129 0.129 0 0 0 2.81 5.311 A 0.196 0.196 0 0 0 2.844 5.314 A 0.339 0.339 0 0 0 2.938 5.3 A 0.419 0.419 0 0 0 2.981 5.285 L 2.981 5.357 Q 2.935 5.381 2.869 5.384 A 0.445 0.445 0 0 1 2.846 5.385 Q 2.73 5.385 2.666 5.313 Q 2.603 5.242 2.603 5.111 A 0.447 0.447 0 0 1 2.609 5.03 Q 2.618 4.984 2.636 4.948 A 0.223 0.223 0 0 1 2.667 4.903 Q 2.732 4.83 2.852 4.83 Q 2.89 4.83 2.929 4.838 Q 2.967 4.847 2.989 4.858 Z M 1.701 4.899 A 0.228 0.228 0 0 0 1.657 4.903 Q 1.607 4.913 1.581 4.947 A 0.139 0.139 0 0 0 1.561 4.985 Q 1.547 5.023 1.545 5.081 A 0.624 0.624 0 0 0 1.544 5.107 A 0.536 0.536 0 0 0 1.547 5.162 Q 1.554 5.233 1.582 5.268 A 0.118 0.118 0 0 0 1.642 5.309 Q 1.668 5.317 1.703 5.317 A 0.162 0.162 0 0 0 1.749 5.311 A 0.117 0.117 0 0 0 1.814 5.262 A 0.186 0.186 0 0 0 1.837 5.213 Q 1.851 5.168 1.851 5.106 Q 1.851 5.001 1.814 4.95 A 0.118 0.118 0 0 0 1.739 4.903 A 0.187 0.187 0 0 0 1.701 4.899 Z M 2.384 5.16 L 2.384 5.112 L 2.303 5.115 A 0.595 0.595 0 0 0 2.256 5.119 Q 2.195 5.126 2.164 5.145 A 0.086 0.086 0 0 0 2.123 5.208 A 0.128 0.128 0 0 0 2.121 5.228 A 0.116 0.116 0 0 0 2.124 5.255 Q 2.129 5.275 2.142 5.289 A 0.072 0.072 0 0 0 2.148 5.295 A 0.088 0.088 0 0 0 2.181 5.312 Q 2.194 5.316 2.21 5.317 A 0.182 0.182 0 0 0 2.222 5.318 Q 2.298 5.318 2.341 5.276 Q 2.384 5.235 2.384 5.161 Z" id="back_labelLayer" stroke="#777777" fill="#777777" style="stroke:#777777;fill:#777777" vector-effect="non-scaling-stroke"/><path d="M 5.361 0 L 5.361 1.18 L 5.125 1.18 L 5.125 2.271 L 5.361 2.271 L 5.361 3.363 L 5.125 3.363 L 5.125 4.454 L 5.361 4.454 L 5.361 5.546 L 5.125 5.546 L 5.125 6.637 L 5.361 6.637 L 5.361 7.729 L 5.125 7.729 L 5.125 8.82 L 5.361 8.82 L 5.361 10 L 5.988 10 L 5.988 9.764 L 7.079 9.764 L 7.079 10 L 8.171 10 L 8.171 9.764 L 9.262 9.764 L 9.262 10 L 9.889 10 L 9.889 8.82 L 10.125 8.82 L 10.125 7.729 L 9.889 7.729 L 9.889 6.637 L 10.125 6.637 L 10.125 5.546 L 9.889 5.546 L 9.889 4.454 L 10.125 4.454 L 10.125 3.363 L 9.889 3.363 L 9.889 2.271 L 10.125 2.271 L 10.125 1.18 L 9.889 1.18 L 9.889 0 L 9.262 0 L 9.262 0.236 L 8.171 0.236 L 8.171 0 L 7.079 0 L 7.079 0.236 L 5.988 0.236 L 5.988 0 L 5.361 0 Z" id="right_outsideCutPath" stroke="#FF0000" stroke-width="0.1" style="stroke:#FF0000;stroke-width:0.1" vector-effect="non-scaling-stroke"/><path d="M 8.247 5.26 L 8.166 5.26 L 8.166 4.914 A 0.229 0.229 0 0 0 8.163 4.878 Q 8.157 4.839 8.136 4.816 A 0.091 0.091 0 0 0 8.099 4.792 Q 8.075 4.784 8.043 4.784 Q 7.988 4.784 7.952 4.803 A 0.113 0.113 0 0 0 7.919 4.83 A 0.135 0.135 0 0 0 7.897 4.87 Q 7.883 4.907 7.881 4.962 A 0.523 0.523 0 0 0 7.881 4.98 L 7.881 5.26 L 7.8 5.26 L 7.8 4.5 L 7.881 4.5 L 7.881 4.73 A 0.729 0.729 0 0 1 7.88 4.758 Q 7.879 4.781 7.877 4.799 L 7.882 4.799 A 0.162 0.162 0 0 1 7.938 4.744 A 0.198 0.198 0 0 1 7.95 4.738 A 0.208 0.208 0 0 1 8.018 4.718 A 0.263 0.263 0 0 1 8.051 4.716 Q 8.115 4.716 8.158 4.736 A 0.146 0.146 0 0 1 8.198 4.762 A 0.141 0.141 0 0 1 8.233 4.817 Q 8.247 4.856 8.247 4.911 L 8.247 5.26 Z M 7.505 4.725 L 7.69 4.725 L 7.69 4.776 L 7.591 4.788 A 0.132 0.132 0 0 1 7.602 4.805 Q 7.609 4.817 7.615 4.832 Q 7.626 4.86 7.626 4.895 A 0.186 0.186 0 0 1 7.617 4.952 A 0.15 0.15 0 0 1 7.572 5.02 A 0.18 0.18 0 0 1 7.501 5.057 Q 7.467 5.067 7.425 5.067 A 0.26 0.26 0 0 1 7.394 5.065 A 0.22 0.22 0 0 1 7.38 5.063 A 0.144 0.144 0 0 0 7.356 5.078 Q 7.344 5.088 7.337 5.099 A 0.061 0.061 0 0 0 7.328 5.132 A 0.042 0.042 0 0 0 7.33 5.146 Q 7.334 5.157 7.345 5.164 A 0.045 0.045 0 0 0 7.346 5.164 Q 7.361 5.173 7.392 5.174 A 0.308 0.308 0 0 0 7.408 5.175 L 7.503 5.175 A 0.332 0.332 0 0 1 7.553 5.178 Q 7.579 5.182 7.601 5.191 A 0.146 0.146 0 0 1 7.636 5.211 A 0.119 0.119 0 0 1 7.68 5.287 A 0.178 0.178 0 0 1 7.683 5.318 A 0.175 0.175 0 0 1 7.673 5.379 Q 7.656 5.424 7.612 5.453 A 0.243 0.243 0 0 1 7.549 5.482 Q 7.518 5.491 7.48 5.496 A 0.642 0.642 0 0 1 7.404 5.5 A 0.454 0.454 0 0 1 7.343 5.496 Q 7.312 5.492 7.286 5.483 A 0.188 0.188 0 0 1 7.242 5.461 A 0.129 0.129 0 0 1 7.2 5.416 Q 7.187 5.391 7.185 5.36 A 0.171 0.171 0 0 1 7.185 5.351 A 0.124 0.124 0 0 1 7.216 5.266 Q 7.247 5.23 7.304 5.218 A 0.084 0.084 0 0 1 7.271 5.191 A 0.1 0.1 0 0 1 7.27 5.189 Q 7.256 5.169 7.256 5.144 A 0.093 0.093 0 0 1 7.26 5.114 A 0.082 0.082 0 0 1 7.271 5.092 A 0.116 0.116 0 0 1 7.287 5.075 Q 7.295 5.067 7.305 5.06 A 0.255 0.255 0 0 1 7.321 5.05 A 0.142 0.142 0 0 1 7.259 5 A 0.176 0.176 0 0 1 7.253 4.992 A 0.168 0.168 0 0 1 7.227 4.911 A 0.204 0.204 0 0 1 7.227 4.898 A 0.234 0.234 0 0 1 7.233 4.843 A 0.154 0.154 0 0 1 7.28 4.762 A 0.172 0.172 0 0 1 7.346 4.726 Q 7.372 4.718 7.403 4.716 A 0.358 0.358 0 0 1 7.429 4.715 A 0.311 0.311 0 0 1 7.47 4.717 A 0.237 0.237 0 0 1 7.505 4.725 Z M 8.659 5.193 L 8.659 5.255 A 0.08 0.08 0 0 1 8.65 5.259 Q 8.64 5.262 8.625 5.265 A 0.304 0.304 0 0 1 8.621 5.265 A 0.351 0.351 0 0 1 8.598 5.268 Q 8.587 5.269 8.577 5.27 A 0.207 0.207 0 0 1 8.574 5.27 A 0.212 0.212 0 0 1 8.512 5.261 Q 8.419 5.232 8.419 5.106 L 8.419 4.788 L 8.343 4.788 L 8.343 4.749 L 8.419 4.715 L 8.453 4.601 L 8.5 4.601 L 8.5 4.725 L 8.656 4.725 L 8.656 4.788 L 8.5 4.788 L 8.5 5.103 Q 8.5 5.137 8.512 5.159 A 0.079 0.079 0 0 0 8.523 5.177 A 0.075 0.075 0 0 0 8.569 5.201 A 0.108 0.108 0 0 0 8.586 5.203 A 0.266 0.266 0 0 0 8.625 5.2 A 0.245 0.245 0 0 0 8.628 5.199 A 0.438 0.438 0 0 0 8.639 5.197 Q 8.651 5.195 8.659 5.193 Z M 6.899 4.721 L 6.887 4.796 A 0.357 0.357 0 0 0 6.862 4.791 Q 6.849 4.789 6.838 4.789 A 0.19 0.19 0 0 0 6.829 4.789 A 0.14 0.14 0 0 0 6.725 4.833 A 0.192 0.192 0 0 0 6.718 4.841 A 0.185 0.185 0 0 0 6.673 4.945 A 0.246 0.246 0 0 0 6.672 4.973 L 6.672 5.26 L 6.591 5.26 L 6.591 4.725 L 6.657 4.725 L 6.667 4.824 L 6.671 4.824 A 0.274 0.274 0 0 1 6.701 4.78 A 0.209 0.209 0 0 1 6.742 4.743 A 0.162 0.162 0 0 1 6.835 4.715 A 0.372 0.372 0 0 1 6.868 4.716 A 0.272 0.272 0 0 1 6.899 4.721 Z M 7.08 4.725 L 7.08 5.26 L 6.999 5.26 L 6.999 4.725 L 7.08 4.725 Z M 7.477 5.248 L 7.38 5.248 A 0.186 0.186 0 0 0 7.346 5.25 Q 7.327 5.254 7.312 5.262 A 0.095 0.095 0 0 0 7.294 5.274 A 0.085 0.085 0 0 0 7.266 5.322 A 0.13 0.13 0 0 0 7.263 5.35 Q 7.263 5.39 7.295 5.412 A 0.095 0.095 0 0 0 7.3 5.416 Q 7.325 5.431 7.365 5.436 A 0.332 0.332 0 0 0 7.404 5.438 A 0.545 0.545 0 0 0 7.458 5.436 Q 7.52 5.429 7.556 5.407 A 0.118 0.118 0 0 0 7.583 5.385 A 0.089 0.089 0 0 0 7.605 5.325 A 0.11 0.11 0 0 0 7.603 5.303 Q 7.597 5.277 7.578 5.264 Q 7.551 5.248 7.477 5.248 Z M 7.307 4.896 A 0.158 0.158 0 0 0 7.31 4.929 Q 7.315 4.95 7.325 4.965 A 0.087 0.087 0 0 0 7.339 4.981 A 0.105 0.105 0 0 0 7.381 5.004 Q 7.397 5.008 7.416 5.009 A 0.209 0.209 0 0 0 7.427 5.01 A 0.177 0.177 0 0 0 7.473 5.004 Q 7.526 4.99 7.54 4.938 A 0.164 0.164 0 0 0 7.546 4.895 A 0.174 0.174 0 0 0 7.54 4.847 Q 7.524 4.793 7.47 4.779 A 0.176 0.176 0 0 0 7.426 4.774 Q 7.368 4.774 7.338 4.805 Q 7.312 4.831 7.308 4.878 A 0.213 0.213 0 0 0 7.307 4.896 Z M 6.992 4.58 Q 6.992 4.552 7.006 4.539 A 0.047 0.047 0 0 1 7.036 4.526 A 0.062 0.062 0 0 1 7.04 4.526 A 0.048 0.048 0 0 1 7.073 4.539 A 0.041 0.041 0 0 1 7.084 4.556 Q 7.086 4.563 7.087 4.571 A 0.093 0.093 0 0 1 7.088 4.58 A 0.084 0.084 0 0 1 7.086 4.595 Q 7.083 4.611 7.073 4.62 Q 7.059 4.634 7.04 4.634 A 0.051 0.051 0 0 1 7.022 4.631 A 0.045 0.045 0 0 1 7.006 4.62 A 0.042 0.042 0 0 1 6.995 4.604 Q 6.993 4.597 6.992 4.589 A 0.096 0.096 0 0 1 6.992 4.58 Z" id="right_labelLayer" stroke="#777777" fill="#777777" style="stroke:#777777;fill:#777777" vector-effect="non-scaling-stroke"/><path d="M 10.486 10.236 L 10.486 10.863 L 10.25 10.863 L 10.25 11.954 L 10.486 11.954 L 10.486 13.046 L 10.25 13.046 L 10.25 14.137 L 10.486 14.137 L 10.486 14.764 L 11.113 14.764 L 11.113 15 L 12.204 15 L 12.204 14.764 L 13.296 14.764 L 13.296 15 L 14.387 15 L 14.387 14.764 L 15.014 14.764 L 15.014 14.137 L 15.25 14.137 L 15.25 13.046 L 15.014 13.046 L 15.014 11.954 L 15.25 11.954 L 15.25 10.863 L 15.014 10.863 L 15.014 10.236 L 14.387 10.236 L 14.387 10 L 13.296 10 L 13.296 10.236 L 12.204 10.236 L 12.204 10 L 11.113 10 L 11.113 10.236 L 10.486 10.236 Z" id="bottom_outsideCutPath" stroke="#FF0000" stroke-width="0.1" style="stroke:#FF0000;stroke-width:0.1" vector-effect="non-scaling-stroke"/><path d="M 14.395 12.875 L 14.314 12.875 L 14.314 12.527 A 0.239 0.239 0 0 0 14.312 12.492 Q 14.309 12.474 14.303 12.459 A 0.098 0.098 0 0 0 14.287 12.431 A 0.085 0.085 0 0 0 14.247 12.405 Q 14.233 12.401 14.216 12.399 A 0.188 0.188 0 0 0 14.202 12.399 A 0.209 0.209 0 0 0 14.159 12.403 Q 14.134 12.408 14.115 12.42 A 0.107 0.107 0 0 0 14.09 12.442 Q 14.064 12.473 14.057 12.527 A 0.356 0.356 0 0 0 14.054 12.575 L 14.054 12.875 L 13.973 12.875 L 13.973 12.527 A 0.239 0.239 0 0 0 13.97 12.492 Q 13.968 12.474 13.962 12.459 A 0.098 0.098 0 0 0 13.945 12.431 A 0.085 0.085 0 0 0 13.906 12.405 Q 13.892 12.401 13.875 12.399 A 0.19 0.19 0 0 0 13.86 12.399 A 0.201 0.201 0 0 0 13.818 12.403 Q 13.773 12.412 13.748 12.445 Q 13.713 12.49 13.713 12.594 L 13.713 12.875 L 13.632 12.875 L 13.632 12.34 L 13.698 12.34 L 13.711 12.413 L 13.715 12.413 A 0.159 0.159 0 0 1 13.78 12.352 A 0.192 0.192 0 0 1 13.856 12.331 A 0.232 0.232 0 0 1 13.873 12.33 A 0.265 0.265 0 0 1 13.933 12.336 Q 14.009 12.354 14.037 12.421 L 14.041 12.421 A 0.169 0.169 0 0 1 14.105 12.358 A 0.203 0.203 0 0 1 14.11 12.354 A 0.205 0.205 0 0 1 14.186 12.332 A 0.256 0.256 0 0 1 14.214 12.33 Q 14.305 12.33 14.35 12.377 A 0.14 0.14 0 0 1 14.38 12.426 Q 14.395 12.466 14.395 12.526 L 14.395 12.875 Z M 11.186 12.806 L 11.18 12.806 L 11.163 12.875 L 11.105 12.875 L 11.105 12.115 L 11.186 12.115 L 11.186 12.3 A 1.69 1.69 0 0 1 11.185 12.357 Q 11.184 12.384 11.182 12.408 A 1.023 1.023 0 0 1 11.182 12.411 L 11.186 12.411 Q 11.243 12.331 11.354 12.331 A 0.248 0.248 0 0 1 11.424 12.34 A 0.185 0.185 0 0 1 11.518 12.403 Q 11.576 12.475 11.576 12.607 A 0.475 0.475 0 0 1 11.57 12.687 Q 11.563 12.729 11.547 12.764 A 0.228 0.228 0 0 1 11.517 12.812 A 0.192 0.192 0 0 1 11.381 12.883 A 0.275 0.275 0 0 1 11.354 12.885 A 0.246 0.246 0 0 1 11.292 12.877 A 0.214 0.214 0 0 1 11.259 12.865 A 0.18 0.18 0 0 1 11.186 12.806 Z M 12.568 12.808 L 12.568 12.87 A 0.08 0.08 0 0 1 12.558 12.874 Q 12.548 12.877 12.534 12.88 A 0.304 0.304 0 0 1 12.529 12.881 A 0.351 0.351 0 0 1 12.506 12.884 Q 12.495 12.885 12.486 12.885 A 0.207 0.207 0 0 1 12.483 12.885 A 0.212 0.212 0 0 1 12.421 12.876 Q 12.328 12.848 12.328 12.721 L 12.328 12.403 L 12.251 12.403 L 12.251 12.364 L 12.328 12.33 L 12.362 12.216 L 12.409 12.216 L 12.409 12.34 L 12.564 12.34 L 12.564 12.403 L 12.409 12.403 L 12.409 12.718 Q 12.409 12.752 12.42 12.775 A 0.079 0.079 0 0 0 12.432 12.792 A 0.075 0.075 0 0 0 12.478 12.817 A 0.108 0.108 0 0 0 12.495 12.818 A 0.266 0.266 0 0 0 12.534 12.815 A 0.245 0.245 0 0 0 12.536 12.815 A 0.438 0.438 0 0 0 12.548 12.813 Q 12.56 12.81 12.568 12.808 Z M 12.921 12.808 L 12.921 12.87 A 0.08 0.08 0 0 1 12.911 12.874 Q 12.901 12.877 12.887 12.88 A 0.304 0.304 0 0 1 12.882 12.881 A 0.351 0.351 0 0 1 12.859 12.884 Q 12.848 12.885 12.839 12.885 A 0.207 0.207 0 0 1 12.836 12.885 A 0.212 0.212 0 0 1 12.774 12.876 Q 12.681 12.848 12.681 12.721 L 12.681 12.403 L 12.604 12.403 L 12.604 12.364 L 12.681 12.33 L 12.715 12.216 L 12.762 12.216 L 12.762 12.34 L 12.917 12.34 L 12.917 12.403 L 12.762 12.403 L 12.762 12.718 Q 12.762 12.752 12.773 12.775 A 0.079 0.079 0 0 0 12.785 12.792 A 0.075 0.075 0 0 0 12.831 12.817 A 0.108 0.108 0 0 0 12.848 12.818 A 0.266 0.266 0 0 0 12.887 12.815 A 0.245 0.245 0 0 0 12.889 12.815 A 0.438 0.438 0 0 0 12.901 12.813 Q 12.913 12.81 12.921 12.808 Z M 12.172 12.688 A 0.419 0.419 0 0 0 12.18 12.607 A 0.475 0.475 0 0 0 12.18 12.594 Q 12.178 12.549 12.169 12.512 A 0.252 0.252 0 0 0 12.114 12.405 A 0.212 0.212 0 0 0 12.015 12.341 A 0.272 0.272 0 0 0 11.935 12.33 A 0.315 0.315 0 0 0 11.879 12.335 A 0.214 0.214 0 0 0 11.753 12.403 A 0.224 0.224 0 0 0 11.726 12.441 Q 11.688 12.507 11.688 12.607 A 0.405 0.405 0 0 0 11.693 12.673 A 0.3 0.3 0 0 0 11.718 12.754 A 0.266 0.266 0 0 0 11.724 12.766 A 0.219 0.219 0 0 0 11.804 12.851 A 0.226 0.226 0 0 0 11.856 12.874 A 0.26 0.26 0 0 0 11.932 12.885 A 0.315 0.315 0 0 0 11.987 12.88 A 0.216 0.216 0 0 0 12.114 12.811 Q 12.158 12.762 12.172 12.688 Z M 13.482 12.688 A 0.419 0.419 0 0 0 13.49 12.607 A 0.475 0.475 0 0 0 13.49 12.594 Q 13.488 12.549 13.479 12.512 A 0.252 0.252 0 0 0 13.424 12.405 A 0.212 0.212 0 0 0 13.325 12.341 A 0.272 0.272 0 0 0 13.245 12.33 A 0.315 0.315 0 0 0 13.189 12.335 A 0.214 0.214 0 0 0 13.063 12.403 A 0.224 0.224 0 0 0 13.036 12.441 Q 12.998 12.507 12.998 12.607 A 0.405 0.405 0 0 0 13.003 12.673 A 0.3 0.3 0 0 0 13.028 12.754 A 0.266 0.266 0 0 0 13.034 12.766 A 0.219 0.219 0 0 0 13.114 12.851 A 0.226 0.226 0 0 0 13.166 12.874 A 0.26 0.26 0 0 0 13.242 12.885 A 0.315 0.315 0 0 0 13.297 12.88 A 0.216 0.216 0 0 0 13.424 12.811 Q 13.468 12.762 13.482 12.688 Z M 11.772 12.607 A 0.41 0.41 0 0 0 11.776 12.666 Q 11.785 12.726 11.813 12.763 Q 11.854 12.817 11.934 12.817 A 0.188 0.188 0 0 0 11.983 12.811 A 0.131 0.131 0 0 0 12.054 12.763 A 0.174 0.174 0 0 0 12.082 12.711 Q 12.096 12.667 12.096 12.607 A 0.404 0.404 0 0 0 12.092 12.549 Q 12.083 12.489 12.054 12.452 A 0.133 0.133 0 0 0 11.972 12.402 A 0.204 0.204 0 0 0 11.933 12.399 A 0.193 0.193 0 0 0 11.885 12.405 A 0.129 0.129 0 0 0 11.812 12.451 A 0.168 0.168 0 0 0 11.786 12.502 Q 11.779 12.525 11.775 12.553 A 0.428 0.428 0 0 0 11.772 12.607 Z M 13.082 12.607 A 0.41 0.41 0 0 0 13.086 12.666 Q 13.095 12.726 13.123 12.763 Q 13.164 12.817 13.244 12.817 A 0.188 0.188 0 0 0 13.293 12.811 A 0.131 0.131 0 0 0 13.364 12.763 A 0.174 0.174 0 0 0 13.392 12.711 Q 13.406 12.667 13.406 12.607 A 0.404 0.404 0 0 0 13.402 12.549 Q 13.393 12.489 13.364 12.452 A 0.133 0.133 0 0 0 13.282 12.402 A 0.204 0.204 0 0 0 13.243 12.399 A 0.193 0.193 0 0 0 13.195 12.405 A 0.129 0.129 0 0 0 13.123 12.451 A 0.168 0.168 0 0 0 13.097 12.502 Q 13.089 12.525 13.085 12.553 A 0.428 0.428 0 0 0 13.082 12.607 Z M 11.342 12.399 A 0.228 0.228 0 0 0 11.298 12.403 Q 11.249 12.413 11.223 12.447 A 0.139 0.139 0 0 0 11.203 12.485 Q 11.189 12.523 11.187 12.58 A 0.624 0.624 0 0 0 11.186 12.607 A 0.536 0.536 0 0 0 11.189 12.662 Q 11.196 12.733 11.224 12.768 A 0.118 0.118 0 0 0 11.283 12.809 Q 11.31 12.817 11.344 12.817 A 0.162 0.162 0 0 0 11.39 12.811 A 0.117 0.117 0 0 0 11.456 12.762 A 0.186 0.186 0 0 0 11.479 12.713 Q 11.492 12.668 11.492 12.606 Q 11.492 12.501 11.456 12.45 A 0.118 0.118 0 0 0 11.38 12.403 A 0.187 0.187 0 0 0 11.342 12.399 Z" id="bottom_labelLayer" stroke="#777777" fill="#777777" style="stroke:#777777;fill:#777777" vector-effect="non-scaling-stroke"/></g></svg>